<svg width="1666" height="1666" viewBox="0 0 1666 1666" fill="none" xmlns="http://www.w3.org/2000/svg">
<rect width="1666" height="1666" rx="371" fill="white"/>
<path d="M760.684 293.175L754.11 304.68L759.862 307.967C793.281 255.921 828.891 202.78 866.692 148.543L998.176 183.879L1025.29 304.68C990.78 340.838 957.635 377.27 925.86 413.976C893.537 451.229 864.775 488.483 839.574 525.737C814.921 562.991 794.102 600.244 777.119 637.498C760.136 674.204 744.522 710.91 730.278 747.616L671.11 752.546C658.51 717.484 649.196 680.504 643.17 641.607C636.596 602.162 640.979 557.512 656.319 507.658C659.606 496.701 663.714 485.47 668.645 473.965C673.028 463.008 678.232 451.503 684.259 439.451L678.506 436.164C663.167 463.556 648.101 490.675 633.309 517.519C619.065 544.364 606.738 569.291 596.329 592.3C576.607 638.868 566.471 675.3 565.924 701.596C565.376 728.441 568.937 748.985 576.607 763.229C582.633 778.021 593.042 788.704 607.834 795.278C622.626 801.853 646.457 804.592 679.328 803.496C714.938 801.853 759.04 796.922 811.634 788.704C860.94 781.034 910.794 771.173 961.196 759.12C1061.45 732.276 1155.68 701.048 1243.89 665.438L1333.46 722.141L1351.54 774.734C1185.54 901.287 1029.4 1027.84 883.128 1154.39C815.743 1214.66 754.11 1271.36 698.229 1324.5C634.131 1385.86 581.263 1433.8 539.627 1468.31C502.373 1497.89 473.885 1514.06 454.162 1516.8C434.988 1519.53 418.552 1513.78 404.856 1499.54C389.516 1485.29 374.45 1465.85 359.658 1441.19C344.319 1417.09 329.253 1391.61 314.461 1364.77L324.322 1341.76L337.471 1310.53H336.649C376.094 1205.34 405.13 1110.02 423.757 1024.55C427.592 1002.64 430.057 981.821 431.153 962.098C432.248 942.924 432.522 924.297 431.974 906.218V904.574L430.331 903.752C413.348 896.63 398.282 888.139 385.133 878.277C371.985 868.964 360.754 858.555 351.441 847.05C333.362 824.04 324.322 795.552 324.322 761.586C324.322 727.071 333.088 684.339 350.619 633.389C368.698 581.343 393.077 522.176 423.757 455.886C454.436 390.692 487.307 322.485 522.37 251.265C565.65 242.499 606.464 234.555 644.814 227.433C684.259 220.311 716.856 215.107 742.605 211.82C766.71 208.532 781.228 210.45 786.159 217.572C791.089 225.79 784.515 247.43 766.436 282.492C764.245 285.779 762.327 289.34 760.684 293.175ZM895.454 883.208L903.672 874.99L892.167 877.456C847.792 887.865 803.69 897.452 759.862 906.218C716.582 914.983 675.219 921.284 635.774 925.119C636.87 914.709 637.966 904.3 639.061 893.891C639.609 882.386 639.335 872.251 638.24 863.486C637.692 853.624 634.952 845.68 630.022 839.654C625.091 833.628 616.326 830.341 603.725 829.793C576.333 830.341 539.353 836.367 492.786 847.872L494.429 853.624C540.449 842.667 576.88 836.915 603.725 836.367C614.682 836.915 621.804 839.38 625.091 843.763C628.926 848.694 631.391 855.542 632.487 864.307C633.035 873.073 633.035 882.66 632.487 893.069C631.939 905.67 630.57 918.27 628.378 930.871C626.735 942.376 624.817 953.881 622.626 965.385C620.434 976.342 618.243 987.299 616.052 998.256C616.052 998.256 615.778 998.53 615.23 999.078H616.052C614.408 1004.56 612.765 1010.04 611.121 1015.51C602.903 1041.81 593.042 1070.3 581.537 1100.98C570.032 1132.21 557.706 1164.53 544.557 1197.95L539.627 1210.27L895.454 883.208Z" fill="black"/>
</svg>
